<?xml version="1.0" encoding="utf-8"?>
<!-- Generator: Adobe Illustrator 19.1.1, SVG Export Plug-In . SVG Version: 6.00 Build 0)  -->
<svg version="1.1" id="Layer_1" xmlns="http://www.w3.org/2000/svg" xmlns:xlink="http://www.w3.org/1999/xlink" x="0px" y="0px"
	 width="478px" height="472px" viewBox="-66 161 478 472" style="enable-background:new -66 161 478 472;" xml:space="preserve">
<style type="text/css">
	.st0{fill:#27382F;}
	.st1{fill:#0074A5;}
	.st2{fill:#FFE9D7;}
	.st3{fill:#0098C8;}
</style>
<title>Layer 1</title>
<title>Layer 2</title>
<title>Layer 2</title>
<title>Layer 2</title>
<g>
	<path class="st0" d="M174.5,544.2c-12.9-0.6-27.1-8.5-32.8-19.8l-10.8,52.1L174.5,544.2z"/>
	<path class="st1" d="M312.9,191.5c-1.7,2.7-1.8,6.2-0.4,10.3c-0.1,0-0.1,0.1-0.2,0.1L159.3,440.3c-1.4,41.1,35.5,73.1,83.2,53.5
		l-14.9,11L245,492l151.9-236.7c3.2-0.6,5.7-2,7.1-4.2c6.2-9.5-9.1-30.6-34.2-47C344.5,187.6,319.1,182,312.9,191.5z"/>
	<path class="st2" d="M141.7,524.4c5.8,11.3,19.9,19.1,32.8,19.8l68.1-50.5c-47.7,19.6-84.7-12.3-83.2-53.5l-0.3,0.4"/>
</g>
<path class="st1" d="M189.8,539.3l-67.4,49.9l12.7-60.9c-8.9-8.5-8.2-21.1,7.5-36.1l7.6-36.8C104.1,472.9,68.2,481,38,481
	c-36,0-80.6,21.2-80.6,42.9c53.6,120,244.9,58.8,244.9,58.8c-5,1.5,11.3-48,11.3-48C205.4,537,197.4,538.5,189.8,539.3z"/>
<path class="st3" d="M156.1,427l0-0.8l1.5-2.3l12.7-20c-18.9-14-35.9-39.3-34.6-61.4c2.2-38.5,52.8-47.3,67.3-101.9
	c-70.2,49.7-97.9-18.6-179.1,7.1C-57.2,273.4-65.7,365-42,423.5c36.3,52.9,101.3,48.9,196.5,11L156.1,427z M71,309.4
	c-10.2,0-18.5-8.6-18.5-19.1s8.3-19.1,18.5-19.1c10.2,0,18.5,8.6,18.5,19.1S81.2,309.4,71,309.4z"/>
</svg>
